{"title":"Sucker Punch 2011 XViD CAM DTRG","uid":6280445,"size":1056220000,"categoryP":"video","categoryS":"movies","magnet":"?xt=urn:btih:0c660a90fbc6ad86b374cb8ba7cbb693b8db8c15&amp;dn=Sucker+Punch+2011+XViD+CAM+DTRG&amp;tr=udp%3A%2F%2Ftracker.openbittorrent.com%3A80&amp;tr=udp%3A%2F%2Fopen.demonii.com%3A1337&amp;tr=udp%3A%2F%2Ftracker.coppersurfer.tk%3A6969&amp;tr=udp%3A%2F%2Fexodus.desync.com%3A6969","seeders":0,"leechers":0,"uploader":"SAFCukO09","files":4,"time":1301413124,"description":"Format : AVI\nFormat/Info : Audio Video Interleave\nFile size : 1 001 MiB\nDuration : 1h 42mn\nOverall bit rate : 1 364 Kbps\nWriting library : VirtualDub build 32839/release\n\nVideo\nID : 0\nFormat : MPEG-4 Visual\nFormat profile : Advanced Simple@L5\nFormat settings, BVOP : Yes\nFormat settings, QPel : No\nFormat settings, GMC : No warppoints\nFormat settings, Matrix : Custom\nCodec ID : XVID\nCodec ID/Hint : XviD\nDuration : 1h 42mn\nBit rate : 1 227 Kbps\nWidth : 720 pixels\nHeight : 304 pixels\nDisplay aspect ratio : 2.35:1\nFrame rate : 23.976 fps\nColor space : YUV\nChroma subsampling : 4:2:0\nBit depth : 8 bits\nScan type : Progressive\nBits/(Pixel*Frame) : 0.234\nStream size : 900 MiB (90%)\nWriting library : XviD 1.2.1 (UTC 2008-12-04)\n\nAudio\nID : 1\nFormat : MPEG Audio\nFormat version : Version 1\nFormat profile : Layer 3\nCodec ID : 55\nCodec ID/Hint : MP3\nDuration : 1h 42mn\nBit rate mode : Constant\nBit rate : 128 Kbps\nChannel(s) : 2 channels\nSampling rate : 44.1 KHz\nVideo delay : 500ms\nStream size : 93.9 MiB (9%)\nAlignment : Split accross interleaves\nInterleave, duration : 42 ms (1.00 video frame)\nInterleave, preload duration : 500 ms\n\n\n\n &lt;a href=&quot;\nhttp://www.imdb.com/title/tt0978764/&quot; rel=&quot;nofollow&quot; target=&quot;_NEW&quot;&gt;\nhttp://www.imdb.com/title/tt0978764/&lt;/a&gt;\n\n\n\n\n\n\n\n\nStoryline\n\nA young girl (Baby Doll) is locked away in a mental asylum by her abusive stepfather where she will undergo a lobotomy five days time. Faced with unimaginable odds, she retreats to a fantastical world in her imagination where she and four other female inmates at the asylum plot to escape the facility. The lines between reality and fantasy blur as Baby Doll and her companions fight to retrieve the 5 items they need that will allow them to break free from their captors before it's too late...","torrent":{"xt":"urn:btih:0c660a90fbc6ad86b374cb8ba7cbb693b8db8c15","amp;dn":"Sucker+Punch+2011+XViD+CAM+DTRG","amp;tr":["udp%3A%2F%2Ftracker.openbittorrent.com%3A80","udp%3A%2F%2Fopen.demonii.com%3A1337","udp%3A%2F%2Ftracker.coppersurfer.tk%3A6969","udp%3A%2F%2Fexodus.desync.com%3A6969"],"infoHash":"0c660a90fbc6ad86b374cb8ba7cbb693b8db8c15","infoHashBuffer":{"type":"Buffer","data":[12,102,10,144,251,198,173,134,179,116,203,139,167,203,182,147,184,219,140,21]},"announce":[],"urlList":[]}}